<svg width="1200" height="700" viewBox="0 0 1200 700" fill="none" xmlns="http://www.w3.org/2000/svg">
  <rect width="1200" height="700" rx="32" fill="#FAFCFF"/>
  <circle cx="1008" cy="132" r="112" fill="#C4B5FD" fill-opacity="0.26"/>
  <rect x="88" y="74" width="454" height="554" rx="34" fill="#1F2937"/>
  <rect x="102" y="94" width="426" height="514" rx="28" fill="#FFFFFF"/>
  <rect x="132" y="132" width="188" height="22" rx="11" fill="#8B5CF6" fill-opacity="0.18"/>
  <rect x="132" y="186" width="366" height="166" rx="24" fill="#EDE9FE"/>
  <rect x="172" y="220" width="286" height="102" rx="10" fill="white"/>
  <rect x="186" y="236" width="10" height="70" fill="#111827"/>
  <rect x="210" y="236" width="18" height="70" fill="#111827"/>
  <rect x="244" y="236" width="8" height="70" fill="#111827"/>
  <rect x="266" y="236" width="24" height="70" fill="#111827"/>
  <rect x="306" y="236" width="14" height="70" fill="#111827"/>
  <rect x="336" y="236" width="10" height="70" fill="#111827"/>
  <rect x="360" y="236" width="22" height="70" fill="#111827"/>
  <rect x="398" y="236" width="12" height="70" fill="#111827"/>
  <rect x="132" y="388" width="112" height="40" rx="20" fill="#DDD6FE"/>
  <rect x="256" y="388" width="112" height="40" rx="20" fill="#DDD6FE"/>
  <rect x="380" y="388" width="118" height="40" rx="20" fill="#DDD6FE"/>
  <rect x="658" y="116" width="454" height="512" rx="34" fill="#1F2937"/>
  <rect x="672" y="136" width="426" height="472" rx="28" fill="#FFFFFF"/>
  <rect x="706" y="174" width="160" height="20" rx="10" fill="#111827" fill-opacity="0.84"/>
  <rect x="706" y="224" width="160" height="160" rx="24" fill="#F5F3FF"/>
  <rect x="748" y="266" width="76" height="76" rx="12" fill="white"/>
  <rect x="782" y="278" width="10" height="52" fill="#111827"/>
  <rect x="756" y="304" width="62" height="10" fill="#111827"/>
  <rect x="706" y="420" width="340" height="18" rx="9" fill="#6D28D9" fill-opacity="0.12"/>
  <rect x="706" y="458" width="312" height="18" rx="9" fill="#6D28D9" fill-opacity="0.12"/>
  <rect x="706" y="496" width="276" height="18" rx="9" fill="#6D28D9" fill-opacity="0.12"/>
  <text x="112" y="54" fill="#6D28D9" font-family="Arial, sans-serif" font-size="28" font-weight="700">Barcode Generator Screens</text>
</svg>
