<svg width="1200" height="700" viewBox="0 0 1200 700" fill="none" xmlns="http://www.w3.org/2000/svg">
  <rect width="1200" height="700" rx="32" fill="#FFFDF7"/>
  <circle cx="1016" cy="142" r="114" fill="#FCD34D" fill-opacity="0.24"/>
  <rect x="86" y="72" width="462" height="556" rx="34" fill="#1F2937"/>
  <rect x="100" y="92" width="434" height="516" rx="28" fill="#FFFFFF"/>
  <rect x="130" y="128" width="232" height="22" rx="11" fill="#F59E0B" fill-opacity="0.18"/>
  <rect x="130" y="180" width="370" height="118" rx="24" fill="#FEF3C7"/>
  <rect x="154" y="208" width="52" height="64" rx="8" fill="white"/>
  <rect x="216" y="208" width="52" height="64" rx="8" fill="white"/>
  <rect x="278" y="208" width="52" height="64" rx="8" fill="white"/>
  <rect x="340" y="208" width="52" height="64" rx="8" fill="white"/>
  <rect x="130" y="332" width="370" height="54" rx="18" fill="#FFF7ED"/>
  <rect x="130" y="406" width="370" height="54" rx="18" fill="#FFF7ED"/>
  <rect x="130" y="480" width="370" height="54" rx="18" fill="#FFF7ED"/>
  <rect x="658" y="116" width="462" height="512" rx="34" fill="#1F2937"/>
  <rect x="672" y="136" width="434" height="472" rx="28" fill="#FFFFFF"/>
  <rect x="706" y="174" width="216" height="20" rx="10" fill="#111827" fill-opacity="0.84"/>
  <rect x="706" y="224" width="368" height="234" rx="24" fill="#FFFBEB"/>
  <rect x="736" y="258" width="306" height="20" rx="10" fill="#92400E" fill-opacity="0.16"/>
  <rect x="736" y="298" width="278" height="20" rx="10" fill="#92400E" fill-opacity="0.12"/>
  <rect x="736" y="338" width="250" height="20" rx="10" fill="#92400E" fill-opacity="0.12"/>
  <rect x="736" y="392" width="188" height="42" rx="21" fill="#F59E0B"/>
  <text x="110" y="54" fill="#B45309" font-family="Arial, sans-serif" font-size="28" font-weight="700">Library Management Screens</text>
</svg>
